<?xml version="1.0" encoding="UTF-8"?>
<svg width="16px" height="16px" viewBox="0 0 16 16" version="1.1" xmlns="http://www.w3.org/2000/svg" xmlns:xlink="http://www.w3.org/1999/xlink">
    <!-- Generator: Sketch 47.1 (45422) - http://www.bohemiancoding.com/sketch -->
    <title>info_medium</title>
    <desc>Created with Sketch.</desc>
    <defs></defs>
    <g id="Basket" stroke="none" stroke-width="1" fill="none" fill-rule="evenodd">
        <g id="Basket_5" transform="translate(-213.000000, -584.000000)" fill="#8A8A8F">
            <g id="Group" transform="translate(213.000000, 584.000000)">
                <g id="Icons-/-Info-/-Outlined-/-Grey-16pt">
                    <g id="info_medium">
                        <g id="Combined-Shape">
                            <path d="M8,0.5 C12.142009,0.5 15.5,3.85799096 15.5,8 C15.5,12.142009 12.142009,15.5 8,15.5 C3.85799096,15.5 0.5,12.142009 0.5,8 C0.5,3.85799096 3.85799096,0.5 8,0.5 Z M8,1.5 C4.41027571,1.5 1.5,4.41027571 1.5,8 C1.5,11.5897243 4.41027571,14.5 8,14.5 C11.5897243,14.5 14.5,11.5897243 14.5,8 C14.5,4.41027571 11.5897243,1.5 8,1.5 Z M8.9814,6.40866667 L8.9814,11.4569111 L9.88009111,11.5401582 L9.88009111,12.3556116 L6.26218,12.3556116 L6.26218,11.5401582 L7.14872222,11.4569111 L7.14872222,7.3784 L6.28587111,7.29515289 L6.28587111,6.50340622 L8.9814,6.40866667 Z M7.9174,3.583 C8.59126667,3.583 9.00507556,3.91416222 9.00507556,4.61173556 C9.00507556,5.21451333 8.67391333,5.65201333 7.89370889,5.65201333 C7.03085778,5.65201333 6.79449111,5.10817556 6.79449111,4.62327778 C6.79449111,4.06789778 7.10196222,3.583 7.91741556,3.583 L7.9174,3.583 Z"></path>
                        </g>
                    </g>
                </g>
            </g>
        </g>
    </g>
</svg>