<svg xmlns="http://www.w3.org/2000/svg" xmlns:xlink="http://www.w3.org/1999/xlink" width="100" height="145" viewBox="0 0 100 145">
  <defs>
    <rect id="trk-ordr-a" width="100" height="128.049"/>
    <circle id="trk-ordr-c" cx="12.049" cy="77" r="12"/>
  </defs>
  <g fill="none" fill-rule="evenodd" transform="translate(0 .5)">
    <path fill="#7A4DCC" d="M36.4473762,0.512195122 C38.4298254,0.512195122 40.036918,2.11928771 40.036918,4.10173688 C40.036918,8.55075203 40.036918,12.5541801 40.036918,16.112021 C37.3862772,16.0579433 36.4473762,16.0567112 32.8578344,16.112021 C32.8578344,12.541889 32.8578344,8.53846096 32.8578344,4.10173688 C32.8578344,2.11928771 34.464927,0.512195122 36.4473762,0.512195122 Z"/>
    <g transform="translate(0 16)">
      <mask id="trk-ordr-b" fill="#fff">
        <use xlink:href="#trk-ordr-a"/>
      </mask>
      <use fill="#80CBC4" opacity="0" xlink:href="#trk-ordr-a"/>
      <g mask="url(#trk-ordr-b)">
        <g transform="translate(-28.049 -12)">
          <circle cx="64.049" cy="76" r="64" fill="#BEB0F4"/>
          <g transform="translate(24)">
            <circle cx="40.049" cy="76" r="40" fill="#7A4DCC"/>
            <g transform="translate(28)">
              <path fill="#FFF" d="M16.0856984,71.1840475 C18.2315314,72.4253449 19.6752402,74.7454231 19.6752402,77.4026975 C19.6752402,78.0648389 19.5855989,78.7060435 19.4177899,79.3148375 L39.0915396,94.6554468 C40.6288312,95.8726684 40.6185579,98.473232 39.6467556,99.6733079 C38.6749533,100.873384 36.1327932,101.469209 34.573596,100.234643 L14.2293029,84.3711769 C13.6742632,84.5087683 13.0937365,84.581781 12.4961567,84.581781 C8.53125834,84.581781 5.31707317,81.3675958 5.31707317,77.4026975 C5.31707317,74.7454239 6.76078105,72.4253463 8.90661293,71.1840487 L8.90661493,4.10173688 C8.90661493,2.11928771 10.5137075,0.512195122 12.4961567,0.512195122 C14.4786059,0.512195122 16.0856984,2.11928771 16.0856984,4.10173688 L16.0856984,71.1840475 Z"/>
              <use fill="#FFF" xlink:href="#trk-ordr-c"/>
              <circle cx="12.049" cy="77" r="9" stroke="#7A47CF" stroke-width="6"/>
            </g>
          </g>
        </g>
      </g>
    </g>
  </g>
</svg>
