<?xml version="1.0" encoding="UTF-8"?>
<svg width="16px" height="16px" viewBox="0 0 16 16" version="1.1" xmlns="http://www.w3.org/2000/svg" xmlns:xlink="http://www.w3.org/1999/xlink">
    <!-- Generator: Sketch 52.6 (67491) - http://www.bohemiancoding.com/sketch -->
    <title>Action icons / Arrow / Dark grey-24</title>
    <desc>Created with Sketch.</desc>
    <g id="Page-1" stroke="none" stroke-width="1" fill="none" fill-rule="evenodd">
        <g id="07-Group-ordering_Admin" transform="translate(-1318.000000, -863.000000)" fill="#8A8A8F" fill-rule="nonzero">
            <g id="Group-9" transform="translate(974.000000, 72.000000)">
                <g id="Group-22" transform="translate(0.000000, 260.000000)">
                    <g id="Group-21" transform="translate(0.000000, 513.000000)">
                        <g id="Group-7">
                            <g id="Action-icons-/-Arrow-/-Dark-grey-24" transform="translate(352.000000, 26.000000) rotate(90.000000) translate(-352.000000, -26.000000) translate(344.000000, 18.000000)">
                                <path d="M12.4802101,11.7296405 C12.8050181,12.0299697 12.8824293,12.4628751 12.6655495,12.8394629 C12.4528885,13.2087819 12.0047017,13.4166193 11.572892,13.3016412 C11.3875552,13.2522988 11.2104358,13.1514405 11.0692785,13.0241675 C10.8115753,12.7920131 10.6076899,12.6042678 10.1540678,12.1834801 C9.99802924,12.0387367 9.93005831,11.9757395 9.84477518,11.8968971 C9.47371376,11.553876 9.47371376,11.553876 9.10269113,11.2108522 L9.02848787,11.1422484 C7.71638724,9.92916058 7.10194314,9.36138173 6.35663088,8.67372074 C6.08184317,8.42022376 5.93893723,8.13997667 6.02489946,7.77572711 C6.06656847,7.59891407 6.16118696,7.42520983 6.29989379,7.29797389 C6.72350234,6.90961103 7.06666367,6.59798544 7.82828998,5.90856608 C8.08875708,5.67279175 8.19897529,5.57298791 8.33761047,5.44732375 C8.78762874,5.03941611 9.25776927,4.61277237 9.78230494,4.13635764 C10.4256338,3.55209145 10.7113405,3.29231368 11.0677809,2.96709166 C11.3224841,2.73476853 11.6256469,2.6197782 11.9784401,2.68455727 C12.3377228,2.75044334 12.6142867,2.97253627 12.7308195,3.30659657 C12.8528207,3.65647538 12.759498,4.0112298 12.4811084,4.26517552 C12.0554397,4.65345775 11.711327,4.96574349 10.9475889,5.65764997 C10.8095784,5.78268039 10.8095784,5.78268039 10.683145,5.89723732 C10.4260627,6.13015595 10.2150637,6.32102015 9.7599355,6.73249343 L9.73868711,6.75170372 C9.53212201,6.93845623 9.53212201,6.93845623 9.32566656,7.12516425 C9.1974449,7.24115013 9.1974449,7.24115013 9.06922588,7.35713026 L9.00511726,7.41511942 C8.74089908,7.65411841 8.55812612,7.81945398 8.402372,7.96037044 C9.69905316,9.15846111 11.0448385,10.4024271 12.4802101,11.7296405 Z" id="back" transform="translate(9.393939, 8.000000) rotate(-180.000000) translate(-9.393939, -8.000000) "></path>
                            </g>
                        </g>
                    </g>
                </g>
            </g>
        </g>
    </g>
</svg>