<svg xmlns="http://www.w3.org/2000/svg" xmlns:xlink="http://www.w3.org/1999/xlink" width="442" height="337"><defs><path id="A" d="M0 0h442v336.597H0z"/><path id="B" d="M10.256 0h176.326c3.566 0 4.86.37 6.163 1.07a7.27 7.27 0 0 1 3.024 3.024c.697 1.304 1.07 2.597 1.07 6.163v205.793c0 3.566-.37 4.86-1.07 6.163a7.27 7.27 0 0 1-3.024 3.024c-1.304.697-2.597 1.07-6.163 1.07H10.256c-3.566 0-4.86-.37-6.163-1.07a7.27 7.27 0 0 1-3.024-3.024C.37 220.908 0 219.615 0 216.048V10.256c0-3.566.37-4.86 1.07-6.163a7.27 7.27 0 0 1 3.024-3.024C5.396.37 6.69 0 10.256 0z"/><filter id="C" width="107.1%" height="106.2%" x="-3.6%" y="-2.2%"><feOffset dy="2" in="SourceAlpha"/><feGaussianBlur stdDeviation="2"/><feColorMatrix values="0 0 0 0 0 0 0 0 0 0 0 0 0 0 0 0 0 0 0.5 0"/></filter><path id="D" d="M422.79 1.18h176.326c3.566 0 4.86.37 6.163 1.07a7.27 7.27 0 0 1 3.024 3.024c.697 1.304 1.07 2.597 1.07 6.163v205.793c0 3.566-.37 4.86-1.07 6.163a7.27 7.27 0 0 1-3.024 3.024c-1.304.697-2.597 1.07-6.163 1.07H422.79c-3.566 0-4.86-.37-6.163-1.07a7.27 7.27 0 0 1-3.024-3.024c-.697-1.304-1.07-2.597-1.07-6.163V11.434c0-3.566.37-4.86 1.07-6.163a7.27 7.27 0 0 1 3.024-3.024c1.304-.697 2.597-1.07 6.163-1.07zm13.73 18.86c-1.783 0-2.43.186-3.08.534s-1.163.86-1.512 1.512-.534 1.298-.534 3.08v145.328c0 1.783.186 2.43.534 3.08s.86 1.163 1.512 1.512 1.298.534 3.08.534h148.864c1.783 0 2.43-.186 3.08-.534s1.163-.86 1.512-1.512.534-1.298.534-3.08V25.165c0-1.783-.186-2.43-.534-3.08s-.86-1.163-1.512-1.512-1.298-.534-3.08-.534H436.52z"/><path id="E" d="M162.456 82.385c0 44.86-36.367 81.228-81.228 81.228S0 127.246 0 82.385 36.367 1.157 81.228 1.157s81.228 36.367 81.228 81.228"/><filter id="F" width="123.4%" height="123.4%" x="-11.7%" y="-10.5%"><feOffset dy="2" in="SourceAlpha"/><feGaussianBlur stdDeviation="6"/><feColorMatrix values="0 0 0 0 0.184313725 0 0 0 0 0 0 0 0 0 0.407843137 0 0 0 0.8 0"/></filter><path id="G" d="M246.92 188.6c6.577.12 7.105 7.06 6.092 9.946S243.035 216.3 238.97 216.3s-12.14-13.828-13.575-17.766.887-9.95 6.304-9.95 7.27 3.207 7.27 3.207 1.373-3.323 7.95-3.204z"/><filter id="H" width="170.3%" height="172.2%" x="-35.2%" y="-28.9%"><feOffset dy="2" in="SourceAlpha"/><feGaussianBlur stdDeviation="3"/><feColorMatrix values="0 0 0 0 0 0 0 0 0 0 0 0 0 0 0 0 0 0 0.5 0"/></filter><path id="I" d="M66.52 21.725C79.748 44.452 99.84 58.912 123.857 68.55c1.866.75 6.826 2.773 17.65 5.478l-7.97 45.207c-6.63-1.332-31.285-9.758-41.592-15.3C66.587 90.3 31.163 60.268 24.385 52.07S6.836 26.56 4.436 19.932C2.784 15.37.64 10.93.188 6.02-.01 3.894-.095 1.438 2.26.392 4.48-.59 6.475.735 8.097 2.168c2.538 2.244 3.847 5.32 5.267 8.32l8.337 17.15c3.463-7.25 3.916-7.396 10.913-4.276 3.47-8.9 4.413-9.342 11.277-3.893.137.108.606.12.767-.127 1.387-2.122 2.727-4.44 5.328-4.856 1.112-.177 3.613 3.603 4.4 3.868 1.957.66 1.99-1.483 4.196-3.42 1.94-1.704 6 3.48 7.936 6.79z"/><filter id="J" width="120.5%" height="124.3%" x="-8.1%" y="-8%"><feOffset dx="3" dy="5" in="SourceAlpha"/><feGaussianBlur stdDeviation="4"/><feColorMatrix values="0 0 0 0 0 0 0 0 0 0 0 0 0 0 0 0 0 0 0.54 0"/></filter><path id="K" d="M202.98 190.037c-7.115 1.97-14.52.81-21.483-2.306-5.366-2.4-11.005-4.197-16.353-6.633-5.355-2.44-10.438-5.472-15.755-8.004-6.27-2.985-12.3-6.386-18.25-9.942-4.25-2.54-8.37-5.3-12.683-7.725-9.036-5.083-17.477-11.087-26.142-16.738-5.638-3.678-11.117-7.604-16.558-11.59l-22-16.21c-9.436-7.21-18.55-14.792-27.132-23.045-6.798-6.538-13.62-13.047-19.794-20.162-7.327-8.445-8.305-18.263-5.09-28.684 1.528-4.957 5.132-8.393 8.902-11.647 1.29-1.115 3.952-2.56 5.326-3.168 11.532-5.106 24.285-2.2 32.5 7.406 7.92 9.248 16.754 17.55 26.042 25.386 19.615 16.55 40.637 31.178 62.164 45.08 20.33 13.13 41.1 25.502 63.912 33.983 4.85 1.804 9.727 3.472 13.62 7.088 7.018 6.52 9.692 14.65 8.94 24.057-2.018 11.777-8.86 19.72-20.176 22.854z"/><filter id="L" width="117%" height="122.4%" x="-8.5%"><feOffset dy="2" in="SourceAlpha"/><feGaussianBlur stdDeviation="6"/><feColorMatrix values="0 0 0 0 0.184313725 0 0 0 0 0 0 0 0 0 0.407843137 0 0 0 0.8 0"/></filter><path id="M" d="M19.797 126.488a9.68 9.68 0 0 1-9.666-9.666V94.27h135.317v22.552c0 5.334-4.332 9.666-9.66 9.666H19.797z"/><filter id="N" width="128.1%" height="217.9%" x="-14%" y="-52.8%"><feOffset dy="2" in="SourceAlpha"/><feGaussianBlur stdDeviation="6"/><feColorMatrix values="0 0 0 0 0.184313725 0 0 0 0 0 0 0 0 0 0.407843137 0 0 0 0.8 0"/></filter><path id="O" d="M145.447 74.938h-135.3V36.294C10.137 16.74 26.04.838 45.587.838h64.402c19.554 0 35.457 15.903 35.457 35.457l.002 38.643z"/><filter id="P" width="114.8%" height="127%" x="-7.4%" y="-10.8%"><feOffset dy="2" in="SourceAlpha"/><feGaussianBlur stdDeviation="3"/><feColorMatrix values="0 0 0 0 0.184313725 0 0 0 0 0 0 0 0 0 0.407843137 0 0 0 0.8 0"/></filter><linearGradient id="Q" x1="0%" x2="98.663%" y1="50%" y2="50%"><stop offset="0%" stop-color="#fff"/><stop offset="100%" stop-color="#f2f2f2" stop-opacity="0"/></linearGradient><path id="R" d="M93.318 112.816s-.908 13.205 4.153 10.77-4.153-10.77-4.153-10.77z"/></defs><g fill="none" fill-rule="evenodd" transform="translate(0 -5)"><mask id="S" fill="#fff"><use xlink:href="#A"/></mask><g mask="url(#S)"><g transform="translate(-83.685 44.288)"><g transform="translate(206.267 1.179)"><use fill="#000" filter="url(#C)" xlink:href="#B"/><use fill="#512da8" xlink:href="#B"/><rect width="159.12" height="155.584" x="18.859" y="18.859" fill="#7543d1" rx="4"/></g><use fill="#000" filter="url(#C)" xlink:href="#D"/><use fill="#512da8" xlink:href="#D"/><rect width="159.12" height="155.584" x="431.392" y="20.037" fill="#7543d1" rx="4"/><use fill="#000" filter="url(#C)" xlink:href="#F" href="#B"/><use fill="#512da8" xlink:href="#F" href="#B"/><rect width="159.12" height="155.584" x="18.859" y="18.859" fill="#7543d1" rx="4"/><g transform="translate(223.947 12.965)"><use fill="#000" filter="url(#F)" xlink:href="#E"/><use fill="#ffcd68" xlink:href="#E"/><path stroke="#f25228" stroke-width="7" d="M154.123 82.384c0 40.26-32.636 72.895-72.895 72.895S8.334 122.643 8.334 82.384 40.97 9.49 81.228 9.49s72.895 32.636 72.895 72.895z"/><path fill="#edbb58" d="M81.328 152.074c47.71-11.482 61.23-42.293 59.07-72.844-1.862-26.316-8.665-51.028-59.07-65.956 34.572-.436 68.95 27.116 69.14 69.18.28 34.014-25.346 68.07-69.14 69.62z"/><path fill="#e0b153" d="M81.235 163.47c56.26-7.823 76.868-48.996 77.43-79.664S146.2 15.102 82.557 1.195c36.183 0 79.417 30.166 79.783 81.728.637 35.017-27.436 80.467-81.106 80.545z"/><path fill="#f37148" d="M97.093 35.603c-.02-5.29 4.177-9.53 9.412-9.517 5.247.014 9.604 4.295 9.596 9.43-.007 5.24-4.244 9.537-9.438 9.57-5.45.033-9.55-4.03-9.57-9.48M70.524 65.18c-.02-5.29 4.177-9.53 9.412-9.517 5.247.014 9.604 4.295 9.596 9.43-.007 5.24-4.244 9.537-9.438 9.57-5.45.033-9.55-4.03-9.57-9.48m39.926-6.283c-.02-5.29 4.177-9.53 9.412-9.517 5.247.014 9.604 4.295 9.596 9.43-.007 5.24-4.244 9.537-9.438 9.57-5.45.033-9.55-4.03-9.57-9.48m-15.07 25.28c-.02-5.29 4.177-9.53 9.412-9.517 5.247.014 9.604 4.295 9.596 9.43-.007 5.24-4.244 9.537-9.438 9.57-5.45.033-9.55-4.03-9.57-9.48"/><path fill="#f25228" d="M47.906 86.116c-.02-5.29 4.177-9.53 9.412-9.517 5.247.014 9.604 4.295 9.596 9.43-.007 5.24-4.244 9.537-9.438 9.57-5.45.033-9.55-4.03-9.57-9.48"/><path fill="#f37148" d="M36.27 112.635c-.02-5.29 4.177-9.53 9.412-9.517 5.247.014 9.604 4.295 9.596 9.43-.007 5.24-4.244 9.537-9.438 9.57-5.45.033-9.55-4.03-9.57-9.48m43.76-3.23c-.02-5.29 4.177-9.53 9.412-9.517 5.247.014 9.604 4.295 9.596 9.43-.007 5.24-4.244 9.537-9.438 9.57-5.45.033-9.55-4.03-9.57-9.48m28.036 9.5c-.02-5.29 4.177-9.53 9.412-9.517 5.247.014 9.604 4.295 9.596 9.43-.007 5.24-4.244 9.537-9.438 9.57-5.45.033-9.55-4.03-9.57-9.48m17.28-36.5c-.02-5.29 4.177-9.53 9.412-9.517 5.247.014 9.604 4.295 9.596 9.43-.007 5.24-4.244 9.537-9.438 9.57-5.45.033-9.55-4.03-9.57-9.48M67.968 137.9c-.02-5.29 4.177-9.53 9.412-9.517 5.247.014 9.604 4.295 9.596 9.43-.007 5.24-4.244 9.537-9.438 9.57-5.45.033-9.55-4.03-9.57-9.48M61.02 27.572c-.02-5.29 4.177-9.53 9.412-9.517 5.247.014 9.604 4.295 9.596 9.43-.007 5.24-4.244 9.537-9.438 9.57-5.45.033-9.55-4.03-9.57-9.48M36.27 51.535c-.02-5.29 4.177-9.53 9.412-9.517 5.247.014 9.604 4.295 9.596 9.43-.007 5.24-4.244 9.537-9.438 9.57-5.45.033-9.55-4.03-9.57-9.48M17.26 79.018c-.02-5.29 4.177-9.53 9.412-9.517 5.247.014 9.604 4.295 9.596 9.43-.007 5.24-4.244 9.537-9.438 9.57-5.45.033-9.55-4.03-9.57-9.48"/><path fill="#f3edc9" d="M105.61 109.128c-1.474-.04-1.418-.822-.874-2.167 1.988-4.916 8.465-8.253 13.62-6.95.93.235 1.3.725 1.076 1.587-.257.99-.36 2.17-1.738 2.326-.365.04-.744-.068-1.117-.07-3.343-.03-6.06 1.157-7.77 4.15-1.026 1.795-.986 1.818-3.196 1.123M62.398 68.705c-1.075 1.01-1.586.414-2.146-.925-2.047-4.89.206-11.82 4.785-14.522.825-.487 1.434-.4 1.882.37.513.884 1.272 1.794.402 2.875-.23.286-.576.476-.843.736-2.396 2.332-3.5 5.087-2.6 8.418.534 1.997.58 1.985-1.48 3.047M91.292 86.62c-1.075 1.01-1.586.414-2.146-.925-2.047-4.892.206-11.82 4.785-14.522.825-.487 1.434-.4 1.882.37.513.884 1.272 1.794.402 2.875-.23.286-.576.476-.843.736-2.396 2.332-3.5 5.087-2.6 8.418.534 1.997.58 1.985-1.48 3.047m-25.858 28.52c1.158-.914 1.616-.276 2.06 1.105 1.62 5.05-1.218 11.76-6.012 14.058-.864.415-1.463.276-1.843-.53-.436-.925-1.114-1.896-.154-2.9.254-.266.615-.425.903-.66 2.587-2.118 3.914-4.77 3.312-8.164-.36-2.035-.407-2.027 1.736-2.91M38.153 66.365c.248 1.454-.53 1.55-1.956 1.28-5.21-.994-9.742-6.698-9.466-12.007.05-.957.458-1.417 1.348-1.365 1.02.06 2.198-.07 2.62 1.252.112.35.08.743.148 1.11.62 3.286 2.314 5.72 5.583 6.815 1.96.657 1.975.613 1.724 2.916m53.155-21.133c-.65 1.324-1.338.947-2.334-.108-3.64-3.855-3.976-11.133-.644-15.276.6-.747 1.2-.88 1.89-.317.792.646 1.823 1.23 1.4 2.548-.114.35-.37.648-.53.986-1.42 3.027-1.472 5.99.536 8.794 1.204 1.68 1.242 1.653-.3 3.373m43.97 5.954c.64-1.33 1.33-.957 2.335.1 3.67 3.826 4.064 11.1.764 15.27-.595.752-1.194.9-1.89.332-.797-.64-1.833-1.215-1.4-2.538.112-.35.366-.65.522-1 1.396-3.038 1.425-6.002-.606-8.79-1.217-1.67-1.255-1.644.284-3.376"/><path fill="#663ab7" d="M83.16 86.524c.002-1.33-1.188-2.67-2.362-2.577-1.026.08-1.49.758-1.515 1.738-.034 1.28 1.222 2.672 2.376 2.57.997-.088 1.52-.704 1.5-1.73m2.275.518c-.005 2.22-1.34 3.708-3.316 3.696-2.653-.015-5.1-2.687-5.1-5.572-.001-2.182 1.336-3.672 3.327-3.707 2.564-.045 5.096 2.733 5.1 5.583M69.9 110.197c.002-1.33-1.188-2.67-2.362-2.577-1.026.08-1.49.758-1.515 1.738-.034 1.28 1.222 2.672 2.376 2.57.997-.088 1.52-.704 1.5-1.73m2.275.518c-.005 2.22-1.34 3.708-3.316 3.696-2.653-.015-5.1-2.687-5.1-5.572-.001-2.182 1.336-3.672 3.327-3.707 2.564-.045 5.096 2.733 5.1 5.583M45.63 75.087c.002-1.33-1.188-2.67-2.362-2.577-1.026.08-1.49.758-1.515 1.738-.034 1.28 1.222 2.672 2.376 2.57.997-.088 1.52-.704 1.5-1.73m2.275.518c-.005 2.22-1.34 3.708-3.316 3.696-2.653-.015-5.1-2.687-5.1-5.572-.001-2.182 1.336-3.672 3.327-3.707 2.564-.045 5.096 2.733 5.1 5.583M102.87 54.08c.002-1.33-1.188-2.67-2.362-2.577-1.026.08-1.49.758-1.515 1.738-.034 1.28 1.222 2.672 2.376 2.57.997-.088 1.52-.704 1.5-1.73m2.275.518c-.005 2.22-1.34 3.708-3.316 3.696-2.653-.015-5.1-2.687-5.1-5.572-.001-2.182 1.336-3.672 3.327-3.707 2.564-.045 5.096 2.733 5.1 5.583m-6.54 76.803c-.902.978-.933 2.77-.007 3.496.81.636 1.61.45 2.292-.253.892-.92.9-2.793-.008-3.5-.794-.6-1.594-.5-2.276.257m-1.323-1.92c1.506-1.63 3.497-1.82 4.943-.475 1.942 1.808 1.933 5.43-.02 7.554-1.477 1.607-3.47 1.798-4.958.475-1.917-1.703-1.9-5.462.035-7.555m-71.66-31.203c-.902.978-.933 2.77-.007 3.496.81.636 1.61.45 2.292-.253.892-.92.9-2.793-.008-3.5-.794-.6-1.594-.5-2.276.257m-1.323-1.92c1.506-1.63 3.497-1.82 4.943-.475 1.942 1.808 1.933 5.43-.02 7.554-1.477 1.607-3.47 1.798-4.958.475-1.917-1.703-1.9-5.462.035-7.555m51.373-47.744c.002-1.33-1.188-2.67-2.362-2.577-1.026.08-1.49.758-1.515 1.738-.034 1.28 1.222 2.672 2.376 2.57.997-.088 1.52-.704 1.5-1.73m2.275.518c-.005 2.22-1.34 3.708-3.316 3.696-2.653-.015-5.1-2.687-5.1-5.572-.001-2.182 1.336-3.672 3.327-3.707 2.564-.045 5.096 2.733 5.1 5.583m56.807 55.822c.002-1.33-1.188-2.67-2.362-2.577-1.026.08-1.49.758-1.515 1.738-.034 1.28 1.222 2.672 2.376 2.57.997-.088 1.52-.704 1.5-1.73m2.275.518c-.005 2.22-1.34 3.708-3.316 3.696-2.653-.015-5.1-2.687-5.1-5.572-.001-2.182 1.336-3.672 3.327-3.707 2.564-.045 5.096 2.733 5.1 5.583m-85.1-72.525c.002-1.33-1.188-2.67-2.362-2.577-1.026.08-1.49.758-1.515 1.738-.034 1.28 1.222 2.672 2.376 2.57.997-.088 1.52-.704 1.5-1.73m2.275.518c-.005 2.22-1.34 3.708-3.316 3.696-2.653-.015-5.1-2.687-5.1-5.572-.001-2.182 1.336-3.672 3.327-3.707 2.564-.045 5.096 2.733 5.1 5.583m1.934 98.563c.002-1.33-1.188-2.67-2.362-2.577-1.026.08-1.49.758-1.515 1.738-.034 1.28 1.222 2.672 2.376 2.57.997-.088 1.52-.704 1.5-1.73m2.275.518c-.005 2.22-1.34 3.708-3.316 3.696-2.653-.015-5.1-2.687-5.1-5.572-.001-2.182 1.336-3.672 3.327-3.707 2.564-.045 5.096 2.733 5.1 5.583"/></g><use fill="#000" filter="url(#H)" xlink:href="#G"/><use fill="#e5533a" xlink:href="#G"/><g transform="rotate(350 1245.299 -2041.794)"><use fill="#000" filter="url(#J)" xlink:href="#I"/><use fill="#fabba2" xlink:href="#I"/></g><g transform="translate(433.985 28.288)"><g transform="translate(0 .313)"><use fill="#000" filter="url(#L)" xlink:href="#K"/><use fill="#ffab00" xlink:href="#K"/><path fill="#ff8f01" d="M8.136 29.556c1.29-1.115 6.46-4.766 7.834-5.374 11.532-5.106 24.285-2.2 32.5 7.406 7.92 9.248 16.754 17.55 26.042 25.386L91.7 71.147v9.22c0 2.414-12.622-8.918-17.178-12.602-23.168-17.97-30.416-31.61-41.764-36.176-5.497-2.213-11.998-4.482-24.622-2.032z"/><path fill="#f37148" d="M214.217 143.126c-3.892-3.616-8.768-5.284-13.62-7.088-22.81-8.48-43.58-20.852-63.912-33.983-21.527-13.904-42.55-28.53-62.164-45.08-9.288-7.837-18.124-16.138-26.042-25.386-8.224-9.605-20.978-12.512-32.5-7.406-.908.402-1.68.838-2.428 1.244-.182-.298-.366-1.438-.458-2.12-.8-10.488 2.61-17.25 10.776-21.42 8.49-4.336 17.392 0 25.04 7.346-5.025-1.668-10.557-1.962-14.837-5.666-1.112-.962-2.603-.834-3.668.254-1.125 1.15-1.707 2.52-.708 4.135s2.497 2.606 4.124 3.425c3.52 1.773 7.348 2.625 11.135 3.587 6 1.524 10.708 4.447 12.398 10.927.697 2.67 1.652 5.285 2.638 7.868 2.57 6.736 7.093 11.198 14.506 12.264 3.394.49 6.766 1.123 10.15 1.68 3.96.65 7.313 2.31 9.208 6.022 1.3 2.547 2.373 5.212 3.5 7.85 2.808 6.636 6.82 12.007 14.43 13.402 2.708.496 5.454.81 8.238.863 7.225.134 12.986 2.757 16.012 9.836.9 2.106 1.974 4.14 3.012 6.186 2.822 5.555 6.826 9.603 13.343 10.5 4.064.554 8.13 1.022 12.24.982 4.99-.048 8.88 1.817 11.313 6.366 1.17 2.185 2.532 4.266 3.752 6.425 3.282 5.808 7.52 10.447 14.603 11.157 3.984.4 8.003.29 12.014-.088 2.727-.257 5.458-.058 8.04 1.1 4.058 1.82 6.286 5.393 8.57 8.897 2.268 3.48 4.92 6.597 8.57 8.645 1.792 1.006 3.774 1.028 5.037-.994 1.237-1.978.654-3.638-1.28-4.87-.564-.36-1.138-.71-1.66-1.125-3.263-2.588-5.58-5.902-7.318-9.65 12.998 3.274 17.842 16.792 13.02 26.942-3.22 6.772-8.584 10.51-16.113 11.045.753-9.406-1.92-17.536-8.94-24.057z"/><path fill="#f06237" d="M76.315 45.295L52.01 24.673c-8.06-6.7-19.155-17.56-34.715-17.562C20 3.453 22.08 2.792 23.86 1.884 27.257.15 31.15-.342 34.886.658c5.6 1.5 10.89 5.668 14.013 8.572 3.035 2.372 16.86 16.736 19.574 19.214 4.45 4.068 4.657 4.104 7.84 6.596v10.255z"/><path fill="#fd0" d="M226.25 129.196c1.738 3.748 4.054 7.062 7.318 9.65.522.414 1.096.767 1.66 1.125 1.935 1.23 2.518 2.89 1.282 4.87-1.264 2.023-3.245 2-5.038.994-3.65-2.048-6.302-5.165-8.57-8.645-2.284-3.504-4.512-7.08-8.57-8.897-2.58-1.156-5.31-1.355-8.04-1.1-4.01.377-8.03.488-12.014.088-7.084-.71-11.32-5.35-14.603-11.157-1.22-2.16-2.583-4.24-3.752-6.426-2.434-4.548-6.324-6.413-11.314-6.365-4.1.04-8.176-.428-12.24-.982-6.516-.887-10.52-4.935-13.342-10.5-1.04-2.045-2.112-4.08-3.012-6.186-3.026-7.078-8.788-9.7-16.012-9.836-2.784-.052-5.53-.366-8.238-.863-7.6-1.395-11.623-6.766-14.43-13.402-1.116-2.637-2.188-5.303-3.49-7.85-1.895-3.712-5.248-5.37-9.21-6.022l-10.15-1.68c-7.413-1.067-11.935-5.53-14.505-12.264-.986-2.583-1.942-5.197-2.638-7.868-1.7-6.48-6.398-9.403-12.398-10.927-3.787-.962-7.614-1.813-11.135-3.587-1.626-.82-3.125-1.812-4.123-3.425s-.417-2.985.708-4.135c1.065-1.088 2.556-1.216 3.667-.254 4.28 3.705 9.813 4 14.837 5.666 7.385 2.116 12.763 6.28 14.473 14.184 1.067 3.236 2.042 6.51 3.538 9.588 1.2 2.452 2.76 4.664 5.403 5.6 3.558 1.245 7.26 1.943 11.068 1.856 2.638.76 5.334 1.368 7.904 2.314 5.658 2.082 8.307 6.875 10.446 12.06 1.02 3.07 2.422 5.945 4.112 8.713 1.76 2.882 4.266 4.66 7.49 5.186 2.887.472 5.848.493 8.777.713 9.534.015 16.32 4.58 19.893 13.38l4.096 7.8c1.87 3.495 5.052 5.153 8.762 5.666 2.708.374 5.492.426 8.235-.032 5.028.42 10.156.568 14.1 4.408 2.242 2.183 4.372 4.473 5.6 7.43l.54.433-.02-.038c.993 2.906 2.796 5.347 4.472 7.87 1.7 2.556 4.104 3.712 7.073 4.3 3.84.76 7.557-.148 11.327-.308 8.562-1.295 14.548 3.25 20.065 8.854"/><path fill="#f37148" d="M72.313 38.59c-2.644-.925-4.213-3.138-5.403-5.6-1.496-3.08-2.47-6.352-3.538-9.588 5.565 5.975 10.702 9.687 16.092 14.245 1.298 1.098 2.402 1.818 3.917 2.788-3.807.087-7.51-.61-11.068-1.856z"/></g><use xlink:href="#R" fill="#ecd69f" transform="rotate(330 95.363 118.351)"/><g fill="#fbedc9"><use xlink:href="#R" x="-26.848" y="-33.24" transform="rotate(330 68.516 85.111)"/><use xlink:href="#R" x="-65.201" y="-44.746" transform="rotate(330 30.162 73.605)"/><use xlink:href="#R" x="-43.468" y="-35.796" transform="rotate(330 51.896 82.555)"/><use xlink:href="#R" x="-10.228" y="-17.898" transform="rotate(330 85.136 100.453)"/><use xlink:href="#R" x="-31.961" y="-16.62" transform="rotate(330 63.402 101.731)"/><use xlink:href="#R" x="-53.695" y="-57.53" transform="rotate(330 41.668 60.821)"/><use xlink:href="#R" x="-77.985" y="-65.201" transform="rotate(330 17.378 53.15)"/><use xlink:href="#R" x="-34.518" y="-58.809" transform="rotate(330 60.845 59.543)"/><use xlink:href="#R" x="-15.341" y="-42.189" transform="rotate(330 80.022 76.162)"/><use xlink:href="#R" x="-60.088" y="-76.706" transform="rotate(330 35.276 41.644)"/></g></g><g transform="translate(27.11 30.645)"><use fill="#000" filter="url(#N)" xlink:href="#M"/><use fill="#ffab00" xlink:href="#M"/><use fill="#000" filter="url(#P)" xlink:href="#O"/><use fill="#ffab00" xlink:href="#O"/><path fill="#e9725d" d="M139.007 100.716H16.577c-8.88 0-16.112-7.225-16.112-16.112 0-8.88 7.225-16.112 16.112-16.112h122.43c8.88 0 16.112 7.225 16.112 16.112-.007 8.88-7.23 16.112-16.112 16.112z"/><g fill="#ffe082"><circle cx="121.351" cy="45.234" r="5.026"/><circle cx="119.675" cy="20.104" r="5.026"/><circle cx="96.221" cy="31.831" r="5.026"/><circle cx="74.441" cy="16.753" r="5.026"/><circle cx="72.766" cy="46.909" r="5.026"/></g><path fill="#fd0" d="M23.56 68.768l30.57 21.195 5.137-21.316z"/><path fill="#ff8f01" d="M113.51 1.036c6.582.326 17.12 3.836 25.446 14.917 4.683 6.232 6.773 14.516 6.724 25.638l-.35 28.31c-1.982-.966-4.178-1.45-6.6-1.45h-6.752V35.737c0-5.052 1.636-23.352-18.478-34.7zm17.344 99.74c2-.073 7.212 0 8.77 0s4.553-.617 5.85-1.395l-.007 16.635c.007 2.482-.355 5.35-3.32 8.077-3.35 3.08-7.558 2.465-11.296 2.334v-25.65z"/><path fill="#e7624b" d="M132.073 68.61h8.684c3.954.287 14.018 4.54 14.238 15.354s-8.21 16.68-15.5 16.68-7.045.147-8.384 0c9.646-11.02 9.646-21.312.962-32.035z"/></g></g></g><g fill="url(#Q)" mask="url(#S)" opacity=".2"><path d="M150.084 24.5l117.867 1.18v1.18l-117.867 1.18c-1.05-.097-1.575-.658-1.57-1.682s.527-1.642 1.57-1.854zm-148.512 0l117.867 1.18v1.18L1.572 28.037C.52 27.94-.004 27.38 0 26.356s.527-1.642 1.57-1.854zm300.54 0l116.316 1.18v1.18l-116.316 1.18c-1.037-.097-1.554-.658-1.55-1.682s.52-1.642 1.55-1.854zm-56.576-12.965l116.316 1.18v1.18l-116.316 1.18c-1.037-.097-1.554-.658-1.55-1.682s.52-1.642 1.55-1.854zm-169.728 0l116.316 1.18v1.18l-116.316 1.18c-1.037-.097-1.554-.658-1.55-1.682s.52-1.642 1.55-1.854zm301.74 0l116.316 1.18v1.18l-116.316 1.18c-1.037-.097-1.554-.658-1.55-1.682s.52-1.642 1.55-1.854zM434.12 24.5l116.316 1.18v1.18l-116.316 1.18c-1.037-.097-1.554-.658-1.55-1.682s.52-1.642 1.55-1.854z"/></g></g></svg>