<svg xmlns="http://www.w3.org/2000/svg" width="43" height="54" fill-rule="nonzero" fill="none"><path d="M33.97 7.2c-7-7-18.37-7-25.38 0-6.3 6.3-7.02 18.2-1.67 25.35l14.36 20.73 14.36-20.73C41 25.4 40.28 13.5 33.97 7.2zm-14.5 17.44a5.9 5.9 0 1 1 0-11.85 5.9 5.9 0 0 1 5.92 5.92c0 3.27-2.65 5.92-5.92 5.92z" fill="#fccbbc"/><path d="M31.64 6.16a17.6 17.6 0 0 0-24.91 0c-6.2 6.2-6.9 17.87-1.64 24.9l14.1 20.35 14.1-20.35c5.26-7 4.56-18.7-1.64-24.9z" stroke="#f4511e" stroke-width="2"/><circle fill="#f4511e" cx="31.33" cy="40.2" r="11.2"/><path d="M31.53 47.1c.88 0 1.6-.7 1.6-1.58s-.7-1.58-1.6-1.58-1.6.7-1.6 1.58.7 1.58 1.6 1.58zm-.67-5.33H32l.92-8.1h-3z" fill="#fff"/></svg>