<svg xmlns="http://www.w3.org/2000/svg" width="79" height="64" fill-rule="nonzero"><path fill="#ff6ef2" opacity="0" d="M.61 12H69v40H.61z"/><path d="M14.916 31.978c-.638 0-1.014-.34-1.014-.758s.37-.758 1.014-.758H26.39c.638 0 1.027.338 1.027.758s-.384.758-1.027.758H14.916zm15.004 4.02c0 .42-.37.76-1.01.76H6.24l-.135-1.517H28.91c.638 0 1.01.337 1.01.757zm-3.035 4.023c.643 0 .995.337 1 .757 0 .42-.346.76-1 .76H16.213c-.638 0-1-.34-1-.76s.356-.757 1-.757h10.672z" fill="#c8c7cc"/><path d="M53.928 26.5c.41.47 1.145 2.35 2.02 4.316.148.205.23.946.23 1.195 0 .683-1.09 1.54-1.774 1.53H30.6c-.45 0-1.13-.157-1.384-.5s-.44-1.064-.275-1.452l1.313-3.8-2.75-14.288c-.086-.386.03-.788.312-1.086s.69-.446 1.124-.42l16.854 1.285c.594.044 1.088.44 1.22.976l2.263 9.665c3.46.823 4.17 2.02 4.65 2.57z" fill="#ee9181"/><path d="M62.035 48.923c-3.025 0-5.486-2.47-5.486-5.508s2.46-5.508 5.486-5.508 5.484 2.47 5.484 5.508-2.46 5.508-5.484 5.508zm0-8.68a3.17 3.17 0 1 0 0 6.342 3.17 3.17 0 1 0 0-6.342zm-21.222 8.68c-3.025 0-5.486-2.47-5.486-5.508s2.46-5.508 5.486-5.508 5.484 2.47 5.484 5.508-2.46 5.508-5.484 5.508zm0-8.68a3.17 3.17 0 1 0 0 6.342 3.17 3.17 0 1 0 0-6.342zm17.33-16.867c.705-1.06 1.754-1.714 2.827-1.907a1.16 1.16 0 0 1 .959.254c.263.223.415.55.415.894l-.045 2.824.565.583a1.18 1.18 0 0 1 .324.7l.66 7.317 1.984 1.094c1.08.428 2.036.973 2.722 1.5.475.375.586 1.054.253 1.562a1.16 1.16 0 0 1-1.531.383L64.96 37.31c-1.718-.674-3.334-.763-4.793-.216-1.97.74-3.282 1.975-3.705 3.202a1.17 1.17 0 0 1-1.093.777l-7.986.025c-.488.032-.924-.264-1.1-.736-.2-.5-.63-1.12-1.207-1.676-1.104-1.062-2.535-1.648-4.293-1.703-1.728-.06-3.136.56-4.232 1.792-.357.4-.662.85-.91 1.325-.126.242-.23.478-.27.607-.16.474-.604.792-1.1.793-.124 0-.25-.02-.37-.06a1.17 1.17 0 0 1-.73-1.487c.08-.227.2-.52.385-.855.335-.64.744-1.247 1.222-1.797 1.572-1.81 3.617-2.735 6.08-2.655 3.318.104 5.772 1.603 7.217 4.113l6.57-.02c.946-1.68 2.534-3.016 4.716-3.833.73-.274 1.485-.437 2.263-.5l-.663-7.016-.605-.624a1.17 1.17 0 0 1-.33-.816v-1.194c-.174.28-.288.543-.344.787-.028.12-.04.23-.04.255a30.43 30.43 0 0 1 .259 2.973c.07 1.866-.06 3.3-.41 4.233-.774 2.068-3.486 3.513-6.405 3.627h-4.06c-.64-.023-1.143-.566-1.12-1.21s.58-1.166 1.224-1.123c.448.037 2.65.047 3.863-.001 1.935-.076 3.917-1.046 4.316-2.114.327-.873.366-2.82.136-5.138l-4.785-.624a1.17 1.17 0 0 1-1.004-1.306c.08-.646.664-1.1 1.304-1.01l4.542.592c.14-.445.354-.89.648-1.33zm-6.2 4.644c.352.438.933 1.662 1.683 3.49a1.17 1.17 0 0 1 .195.647c0 .635-.51 1.17-1.096 1.158l-19.328.01c-.384 0-.745-.19-.962-.5a1.17 1.17 0 0 1-.121-1.087l.983-2.433-2.752-13.43c-.074-.36.025-.733.267-1s.6-.415.963-.39l12.363.972c.51.04.932.41 1.044.908l2.232 9.953c2.962.765 4.118 1.212 4.53 1.723zm-1.068 2.968l-.587-1.348c-.378-.213-2.267-.786-4.13-1.253-.427-.105-.758-.445-.855-.878l-2.2-9.81-9.963-.783 2.5 12.202a1.16 1.16 0 0 1-.058.665l-.473 1.205h15.77zm-3.87 12.428c0-.645.52-1.168 1.163-1.168l6.422-.002c.643 0 1.163.523 1.163 1.168s-.52 1.17-1.163 1.17h-6.422c-.642 0-1.163-.523-1.163-1.168z" fill="#2a2b2c"/><path d="M5.975 35.385h-4.97c-.647 0-1.005.4-1.005.92s.363.925 1.005.925h5.1l-.13-1.846z" fill="#fff"/></svg>