<svg xmlns="http://www.w3.org/2000/svg" xmlns:xlink="http://www.w3.org/1999/xlink" width="104" height="129"><defs><path id="A" d="M0 0h104v128.05H0z"/></defs><g fill="none" fill-rule="evenodd" transform="translate(0 .5)"><mask id="B" fill="#fff"><use xlink:href="#A"/></mask><use fill="#80cbc4" opacity="0" xlink:href="#A"/><g mask="url(#B)"><circle cx="39" cy="64" r="64" fill="#beb0f4"/><g fill-rule="nonzero"><path fill="#7a4dcc" d="M-5.207 32.988c-.078-2.87.87-5.484 2.82-7.758 3.152-3.672 7.184-5.793 10.34-7.227 7.242-3.32 15.23-5.32 24.418-6.105 11.47-.988 22.703.383 33.387 4.078 5.863 2.035 10.207 4.426 13.672 7.53 3.246 2.902 4.71 6.21 4.488 10.11-.086 1.594-.062 3.258-.04 4.867l.02 2.652c-.008 1.55-.375 2.898-.996 4.03 4.79 1.34 8.305 5.586 8.305 10.613 0 6.086-2.883 9.895-5.395 12.535-.016.012-.016.016-.02.016-1.367 1.39-2.898 2.422-4.25 3.324-2.78 1.867-4.81 3.27-5.016 6.957l4.313 4.422c.43.44.535 1.063.355 1.613.05.152.098.313.098.488v19.684a1.6 1.6 0 0 1-1.598 1.598H-.976a1.6 1.6 0 0 1-1.598-1.598V85.135c0-.176.047-.336.102-.488-.18-.55-.078-1.172.352-1.613l24.8-25.438 3.496-8.082c.027-.06.074-.098.105-.152.074-.125.14-.25.242-.352.082-.078.18-.125.277-.184.078-.05.148-.113.234-.152.156-.062.324-.1.496-.102.04-.004.066-.02.105-.02l23.445-.004c.055 0 .102.027.156.03.152.016.305.035.445.1.102.04.176.11.266.172.082.055.176.098.246.164.113.11.195.25.273.39.023.043.06.07.082.113l.004.012 3.484 8.074L73.773 75.79c1.016-3.4 3.523-5.13 5.988-6.78 1.28-.86 2.605-1.75 3.746-2.906 2.23-2.344 4.508-5.402 4.508-10.324 0-4.242-3.578-7.687-8.027-7.84-1.062.523-2.293.836-3.69.844l-3.836.004a2570.59 2570.59 0 0 1-9.5-.02c-4.48-.035-7.496-3.055-7.516-7.52l-.004-.488.008-7.687c-.484-.148-.965-.312-1.445-.477-.79-.27-1.578-.54-2.375-.727-5.867-1.34-12.11-1.633-19.29-.902-3.566.367-6.44 1.016-9.12 2.086l.012 6.828-.008 1.23c-.012 4.703-2.95 7.637-7.668 7.652l-10.887.02a239.71 239.71 0 0 1-2.367-.012c-4.453-.055-7.465-3.082-7.496-7.527l.004-3.28-.015-4.975z"/><path fill="#fff" d="M17.14 97.318a1.93 1.93 0 0 0 1.173-.394l5.758-4.385c3.577 4.323 8.984 7.083 15.018 7.083 10.746 0 19.487-8.742 19.487-19.487S49.835 60.648 39.1 60.648 19.602 69.39 19.602 80.135c0 3.316.836 6.437 2.304 9.174l-5.948 4.528c-.855.65-1.017 1.867-.366 2.718.385.5.964.765 1.55.765z"/></g><path fill="#7a4dcc" d="M27.487 80.13c0-6.4 5.208-11.607 11.607-11.607S50.7 73.73 50.7 80.13s-5.208 11.607-11.607 11.607c-3.554 0-6.738-1.61-8.868-4.137l4.03-3.07a1.44 1.44 0 1 0-1.749-2.297l-3.85 2.933c-.742-1.523-1.17-3.23-1.17-5.035z"/><g transform="matrix(.707107 .707107 -.707107 .707107 101.865428 -.000237)"><path fill="#7a4dcc" d="M4 3c2.21 0 4 1.616 4 3.6v164.952C8 173.897 5.602 175 4 175s-4-1.43-4-3.438V6.6C0 4.616 1.79 3 4 3z"/><path fill="#fff" d="M12 .88c3 0 4 3.738 4 5.732v164.952c0 2.334-1.73 5.445-4 5.445s-4-3.438-4-5.445V6.6C8 4.616 9 .88 12 .88z"/></g></g></g></svg>