<svg xmlns="http://www.w3.org/2000/svg" viewBox="0 0 182.13 40"><defs><clipPath id="A"><path d="M7.55 27.64L20 31.74V12.36L7.55 8.26v19.38z" fill="none"/></clipPath><linearGradient id="B" x1="4.348" y1="18.951" x2="45.683" y2="35.931" gradientUnits="userSpaceOnUse"><stop offset="0" stop-color="#fefefe"/><stop offset="1" stop-color="#ff4713"/></linearGradient></defs><path d="M56.75 32a10.69 10.69 0 0 1-3.54-.59 7.91 7.91 0 0 1-2.94-1.84 9 9 0 0 1-2-3.1A11.84 11.84 0 0 1 47.5 22a12.22 12.22 0 0 1 .69-4.27 8.86 8.86 0 0 1 1.9-3.12 8.14 8.14 0 0 1 2.81-1.91 8.66 8.66 0 0 1 3.42-.7 8 8 0 0 1 4.86 1.42 7.73 7.73 0 0 1 2.76 3.82 15.3 15.3 0 0 1 .83 5.11v.87H52.44a4.62 4.62 0 0 0 1.5 3.48 5.45 5.45 0 0 0 3.48 1.07 8.71 8.71 0 0 0 3.3-.59 6.49 6.49 0 0 0 2-1.11l1.3 4a7.26 7.26 0 0 1-1.64.91 12.89 12.89 0 0 1-2.51.65 20.41 20.41 0 0 1-3.08.34m-4.23-12.23h7.23a4.77 4.77 0 0 0-.69-2.22 3.13 3.13 0 0 0-1.4-1.22 3.7 3.7 0 0 0-1.38-.36 3.77 3.77 0 0 0-2.42 1 4.06 4.06 0 0 0-1.34 2.85M71.85 32a5.88 5.88 0 0 1-2.95-.69 3.73 3.73 0 0 1-1.66-1.84 6.86 6.86 0 0 1-.45-2.53V8h4.9v18a1.83 1.83 0 0 0 .42 1.4 1.61 1.61 0 0 0 1.16.38 4 4 0 0 0 1.58-.36l.87 3.72a7.09 7.09 0 0 1-1.42.53 8.25 8.25 0 0 1-2.45.34m5.53-.46v-19h4.5l.2 1.42a8 8 0 0 1 2.15-1.34 6.49 6.49 0 0 1 2.59-.63 9.06 9.06 0 0 1 2.67.41 6.67 6.67 0 0 1 2.5 1.48 14.54 14.54 0 0 1 2.87-1.33 10.39 10.39 0 0 1 3.31-.56 8.28 8.28 0 0 1 4.82 1.21 5.39 5.39 0 0 1 2.21 3.09 14.67 14.67 0 0 1 .52 3.83v11.42h-4.87V20.37a5.79 5.79 0 0 0-.71-3.07 2.85 2.85 0 0 0-2.65-1.16 4.78 4.78 0 0 0-2 .51 8.36 8.36 0 0 0-1.72 1 14.76 14.76 0 0 1 .22 2.4v11.5h-5V20.37A6.9 6.9 0 0 0 88.7 18a2.84 2.84 0 0 0-1.07-1.41 2.79 2.79 0 0 0-1.6-.49 4 4 0 0 0-2.09.59A8.41 8.41 0 0 0 82.29 18v13.55zM117 32a10.69 10.69 0 0 1-3.54-.59 7.91 7.91 0 0 1-2.94-1.84 9 9 0 0 1-2-3.1 11.84 11.84 0 0 1-.75-4.43 12.22 12.22 0 0 1 .69-4.27 9 9 0 0 1 1.9-3.12 8.14 8.14 0 0 1 2.81-1.94 8.66 8.66 0 0 1 3.42-.67 8 8 0 0 1 4.86 1.42 7.81 7.81 0 0 1 2.77 3.82 15.56 15.56 0 0 1 .83 5.11v.87h-12.37a4.62 4.62 0 0 0 1.5 3.48 5.45 5.45 0 0 0 3.48 1.07 8.71 8.71 0 0 0 3.3-.59 6.36 6.36 0 0 0 2-1.11l1.3 4a7.55 7.55 0 0 1-1.65.91 12.89 12.89 0 0 1-2.51.65 20.27 20.27 0 0 1-3.1.33m-4.2-12.26h7.2a4.66 4.66 0 0 0-.7-2.22 3.13 3.13 0 0 0-1.4-1.22 3.61 3.61 0 0 0-1.38-.36 3.72 3.72 0 0 0-2.41 1 4 4 0 0 0-1.35 2.85M127 31.55v-19h4.47l.24 1.5a8.41 8.41 0 0 1 2.58-1.46 8.75 8.75 0 0 1 2.91-.51 7.08 7.08 0 0 1 3.93 1 5.47 5.47 0 0 1 2.26 3 13.59 13.59 0 0 1 .65 4.21v11.26h-4.9V20.68a5.48 5.48 0 0 0-.91-3.36 3 3 0 0 0-2.53-1.18 4 4 0 0 0-2.12.59 9.39 9.39 0 0 0-1.65 1.27v13.55zm27 .45a6.36 6.36 0 0 1-5.08-2q-1.75-2-1.76-6.08V12.5h4.9v10.83a6.35 6.35 0 0 0 .71 3.2 2.62 2.62 0 0 0 2.46 1.23 4.77 4.77 0 0 0 2.41-.57 11.19 11.19 0 0 0 1.58-1.09V12.5h4.9v19.05h-4.52l-.16-1.5a7.08 7.08 0 0 1-2.7 1.5A9.89 9.89 0 0 1 154 32m20.4 0a16.43 16.43 0 0 1-4.06-.49 12.1 12.1 0 0 1-2.86-1.07 7 7 0 0 1-1.38-1l1.77-3.76a9.08 9.08 0 0 0 1.88 1.32 9.44 9.44 0 0 0 2.37.91 10.71 10.71 0 0 0 2.28.26 4.35 4.35 0 0 0 2.47-.52 1.63 1.63 0 0 0 .69-1.38 1.67 1.67 0 0 0-.87-1.41 12.85 12.85 0 0 0-3.56-1.2 12.51 12.51 0 0 1-3.81-1.38 4.28 4.28 0 0 1-1.9-2 6.86 6.86 0 0 1-.45-2.53 5.11 5.11 0 0 1 1.87-4.11c1.25-1.1 3.17-1.64 5.7-1.64a13.7 13.7 0 0 1 4.49.69 9.42 9.42 0 0 1 2.79 1.36l-1.66 3.56a10.72 10.72 0 0 0-2.22-1.23 8.39 8.39 0 0 0-3.36-.63 3.61 3.61 0 0 0-2.35.56 1.73 1.73 0 0 0-.61 1.34 1.42 1.42 0 0 0 .79 1.34 12 12 0 0 0 3.08.87 14.54 14.54 0 0 1 4 1.35 4.57 4.57 0 0 1 2.07 2.11 6.54 6.54 0 0 1 .57 2.67 5.2 5.2 0 0 1-1.28 3.66 6.18 6.18 0 0 1-3.06 1.85 13.46 13.46 0 0 1-3.4.46" fill="#6d6e70"/><rect width="40" height="40" rx="4" fill="#ff4713"/><path d="M20 31.74l-12.44-4.1V8.26L20 12.36v19.38z" fill="#fac5ac"/><path d="M20 31.74l12.45-4.1V8.26L20 12.36v19.38z" fill="#fff"/><g clip-path="url(#A)"><path d="M9.85 2.5l18.4 8.1-9.78 25.5-18.4-8.1 9.8-25.5z" fill="url(#B)"/></g></svg>