<svg xmlns="http://www.w3.org/2000/svg" xmlns:xlink="http://www.w3.org/1999/xlink" width="95" height="117"><defs><rect id="A" width="63" height="112" rx="12"/></defs><g fill="none" fill-rule="evenodd" opacity=".3"><g transform="translate(16)"><rect fill="#fccbbc" x="6" y="5" width="63" height="112" rx="12"/><mask id="B" fill="#fff"><use xlink:href="#A"/></mask><g stroke="#f4511e" stroke-width="5"><rect x="2.5" y="2.5" width="58" height="107" rx="12"/><path mask="url(#B)" d="M2.5 91.5h58v18h-58zm0-94h58v18h-58z"/></g><g fill="#f4511e" fill-rule="nonzero"><path d="M47.5 26c-3.312 0-6.08 2.376-6.584 5.65l-3.392 22.046a2 2 0 0 0 1.082 2.094l6.894 3.448V82h4V28a2 2 0 0 0-2-2zm-2 28.764l-3.8-1.9 3.17-20.608c.08-.522.304-.988.63-1.358v23.866zM29.5 26v12h-4V26h-4v12h-4V26h-4v18a6.01 6.01 0 0 0 6 6h2v32h4V50h2a6.01 6.01 0 0 0 6-6V26h-4zm0 18c0 1.102-.896 2-2 2h-8c-1.104 0-2-.898-2-2v-2h12v2z" mask="url(#B)"/><circle mask="url(#B)" cx="32" cy="101" r="3"/></g></g><path fill="#f4511e" d="M81.973 4.657l6.688 6.022-81.634 90.664L.34 95.32z"/><path fill="#fff" d="M87.973 10.657l6.688 6.022-81.634 90.664-6.688-6.022z"/></g></svg>