<svg xmlns="http://www.w3.org/2000/svg" viewBox="0 0 136 136" fill-rule="evenodd"><circle cx="68" cy="68" r="68" fill="#f0f0f0"/><path d="M94 93.8l-2.6-16.2c-.6-3-3-5-6-6L81 70c-1-.5-1.7-.5-2.7.4-4.6 4.3-12 5.4-17 1.7-3.2-2.4-5.6-2-9-.8-3.8 1.4-6.3 3.8-7 7.7-1 4.8-1.5 9.6-2.2 14.5-.3 1.8.7 2.8 2.4 3.4 7.4 2.7 15.2 4 23 4.3l5.2-.4c6-.7 12-1.8 18-4 1.3-.6 2.5-1.4 2.3-3zM68.6 70.4c5-.1 8.5-2.8 10.7-7.2a29 29 0 0 0 3-13.8C82 41 77 36 68.6 36c-8 0-13 4.4-13.8 12.2a29 29 0 0 0 3 15.3c2.3 4.3 5.8 7 10.8 7z" fill="#818286"/></svg>